<svg xmlns="http://www.w3.org/2000/svg" width="1092" height="1093" viewBox="0 0 1092 1093">
  <defs>
    <style>
      .cls-1 {
        fill: #fff;
        fill-rule: evenodd;
      }
    </style>
  </defs>
  <path class="cls-1" d="M549.5,393C636.485,393,707,463.739,707,551S636.485,709,549.5,709,392,638.261,392,551,462.515,393,549.5,393ZM694,191a97,97,0,1,1-97,97A97,97,0,0,1,694,191Zm12,520a97,97,0,1,1-97,97A97,97,0,0,1,706,711ZM250,462a97,97,0,1,1-97,97A97,97,0,0,1,250,462ZM922,237a57,57,0,1,1-57,57A57,57,0,0,1,922,237ZM139,303a57,57,0,1,1-57,57A57,57,0,0,1,139,303ZM586,946a57,57,0,1,1-57,57A57,57,0,0,1,586,946Zm464-519a37,37,0,1,1-37,37A37,37,0,0,1,1050,427ZM223,125a37,37,0,1,1-37,37A37,37,0,0,1,223,125ZM375,993a37,37,0,1,1-37,37A37,37,0,0,1,375,993Z"/>
</svg>
