<svg xmlns="http://www.w3.org/2000/svg" width="2242" height="868" viewBox="0 0 2242 868">
  <defs>
    <style>
      .cls-1 {
        fill: #fff;
        fill-rule: evenodd;
      }
    </style>
  </defs>
  <path id="ESci" class="cls-1" d="M1380.16,607.563V546.486H1160.21V441.254H1352.5V382.293H1160.21V285.257h215.38V225.766H1085.28v381.8h294.88Zm149.02-317.547a77.6,77.6,0,0,1,43.64-13.22q54.525-.26,95.88,42.04,16.92-11.365,52.1-34.108-47.8-63.983-143.95-63.721-59.085,0-98.96,28.952t-39.88,79.189v0.529q0,48.918,31.56,73.9,31.545,24.986,92.78,38.471t79.63,26.969q18.39,13.483,18.39,34.9t-22.29,37.016q-22.29,15.6-48.07,15.6-66.6.266-112.25-54.467l-55.06,32.521q48.615,78.267,165.7,78.263,62.565,0,103.53-30.538,40.95-30.538,40.95-85.27v-0.529q0-46-31.02-71.52-31-25.514-94.93-41.115-27.93-6.345-50.22-13.749t-34.91-20.359q-12.63-12.951-12.62-26.44Q1509.18,303.24,1529.18,290.016Zm399.59,88.575q24.18,0,40.96,9.651t29.94,32.389l57.74-25.911q-15.855-33.576-49.14-51.691-33.315-18.108-80.03-18.112-65.535,0-105.68,41.379T1781.87,470.6v0.529q1.08,82.759,50.09,112.9t97.89,30.141q98.28,0,131.32-77.469l-57.2-22.21q-25.785,46.005-73.59,46.006-31.95,0-54.78-21.946t-22.83-63.721q0-41.774,18.8-67.158t57.2-29.084h0Zm255.51-98.622V219.421h-71.43v60.548h71.43Zm-1.07,327.594V331.527h-69.29V607.563h69.29Z"/>
  <path class="cls-1" d="M430.453,247.812c78.416,0,141.984,63.835,141.984,142.579S508.869,532.969,430.453,532.969,288.469,469.134,288.469,390.391,352.037,247.812,430.453,247.812ZM560.719,65.563a87.516,87.516,0,1,1-87.438,87.516A87.477,87.477,0,0,1,560.719,65.563Zm10.812,469.218A87.516,87.516,0,1,1,484.094,622.3,87.477,87.477,0,0,1,571.531,534.781ZM160.453,310.094A87.516,87.516,0,1,1,73,397.609,87.484,87.484,0,0,1,160.453,310.094Zm605.8-203.032A51.438,51.438,0,1,1,714.875,158.5,51.407,51.407,0,0,1,766.25,107.062ZM60.385,166.616A51.433,51.433,0,1,1,9,218.049,51.409,51.409,0,0,1,60.385,166.616Zm402.967,580.2a51.434,51.434,0,1,1-51.385,51.433A51.41,51.41,0,0,1,463.352,746.817ZM881.641,278.5a33.391,33.391,0,1,1-33.36,33.391A33.375,33.375,0,0,1,881.641,278.5ZM136.109,6A33.391,33.391,0,1,1,102.75,39.391,33.375,33.375,0,0,1,136.109,6ZM273.141,789.219a33.391,33.391,0,1,1-33.36,33.39A33.375,33.375,0,0,1,273.141,789.219Z"/>
</svg>
